<svg width="64" height="57" viewBox="0 0 64 57" fill="none" xmlns="http://www.w3.org/2000/svg">
<path d="M37.3426 45.7942C35.7421 46.4654 35.0709 48.3757 35.7937 49.9246L38.3236 55.2426C39.0464 56.7394 40.8019 57.4111 42.3508 56.7394C46.7394 54.8807 50.5084 52.454 53.503 49.5111C57.1688 46.0523 59.6471 42.0768 60.9895 37.6882C62.3319 33.2474 63.0547 27.2071 63.0547 19.5142L63.0547 3.66355C63.0547 1.95974 61.6607 0.565708 59.9569 0.565708L39.666 0.565706C37.9622 0.565706 36.5682 1.95973 36.5682 3.66355L36.5682 23.9544C36.5682 25.6587 37.9622 27.0522 39.666 27.0522L49.3726 27.0522C49.2693 32.2675 48.0302 36.449 45.7584 39.599C43.8997 42.1279 41.1117 44.1931 37.3426 45.7942Z" fill="#E6214C"/>
<path d="M1.84736 45.7953C0.246812 46.4664 -0.423871 48.3768 0.298442 49.9257L2.82834 55.1915C3.55117 56.6888 5.30662 57.36 6.85554 56.6888C11.1925 54.8301 14.9104 52.4035 17.9561 49.5121C21.6224 46.0013 24.1518 42.0257 25.4947 37.6371C26.8371 33.3006 27.5078 27.2593 27.5078 19.5147L27.5078 3.66411C27.5078 1.9603 26.1138 0.566269 24.41 0.566269L4.11912 0.566267C2.41531 0.566267 1.02128 1.96029 1.02128 3.66411L1.02127 23.955C1.02127 25.6593 2.4153 27.0528 4.11911 27.0528L13.8773 27.0528C13.7741 32.268 12.5344 36.4496 10.2632 39.5996C8.40446 42.129 5.6164 44.1942 1.84736 45.7953Z" fill="#E6214C"/>
</svg>
