<svg width="32" height="32" viewBox="0 0 32 32" fill="none" xmlns="http://www.w3.org/2000/svg">
<g clip-path="url(#clip0_6999_33283)">
<path d="M18.6674 24.3971C17.8671 24.7327 17.5315 25.6879 17.8929 26.4623L19.1579 29.1213C19.5193 29.8697 20.397 30.2055 21.1715 29.8697C23.3658 28.9403 25.2503 27.727 26.7476 26.2555C28.5805 24.5262 29.8196 22.5384 30.4908 20.3441C31.162 18.1237 31.5234 15.1036 31.5234 11.2571L31.5234 3.33177C31.5234 2.47987 30.8264 1.78285 29.9745 1.78285L19.8291 1.78285C18.9772 1.78285 18.2802 2.47987 18.2802 3.33177L18.2802 13.4772C18.2802 14.3294 18.9772 15.0261 19.8291 15.0261L24.6824 15.0261C24.6307 17.6337 24.0112 19.7245 22.8753 21.2995C21.946 22.5639 20.5519 23.5966 18.6674 24.3971Z" fill="#E6214C"/>
<path d="M0.919775 24.3976C0.1195 24.7332 -0.215842 25.6884 0.145315 26.4629L1.41027 29.0958C1.77168 29.8444 2.6494 30.18 3.42386 29.8444C5.59235 28.9151 7.45132 27.7017 8.97416 26.2561C10.8073 24.5006 12.072 22.5128 12.7435 20.3185C13.4147 18.1503 13.75 15.1297 13.75 11.2574L13.75 3.33205C13.75 2.48015 13.053 1.78313 12.2011 1.78313L2.05565 1.78313C1.20375 1.78313 0.506732 2.48015 0.506731 3.33205L0.506731 13.4775C0.50673 14.3296 1.20375 15.0264 2.05565 15.0264L6.93475 15.0264C6.88312 17.634 6.26329 19.7248 5.12768 21.2998C4.19832 22.5645 2.8043 23.5971 0.919775 24.3976Z" fill="#E6214C"/>
</g>
<defs>
<clipPath id="clip0_6999_33283">
<rect width="32" height="32.0009" fill="white" transform="translate(32 32.001) rotate(-180)"/>
</clipPath>
</defs>
</svg>
