<svg xmlns="http://www.w3.org/2000/svg">
<symbol id="emirwa" width="28" height="28" viewBox="0 0 28 28" fill="none" xmlns="http://www.w3.org/2000/svg">
<rect width="28" height="28" rx="14" fill="white"/>
<g clip-path="url(#clip0_1801_316)">
<path fill-rule="evenodd" clip-rule="evenodd" d="M19.6517 8.20328C20.3888 8.89836 20.9693 9.70492 21.3737 10.6033C21.7911 11.541 22.0064 12.5311 21.9999 13.5607C21.9999 14.5836 21.7846 15.5803 21.3672 16.5115C20.9628 17.4098 20.3823 18.2164 19.6452 18.9115C18.9082 19.6066 18.0537 20.1443 17.1014 20.5246C16.1165 20.918 15.0729 21.1148 13.9967 21.1148C12.8422 21.1148 11.7399 20.8918 10.7028 20.4459L7.23276 22L7.88501 18.4262C6.66529 17.0623 6 15.3443 6 13.5541C6 12.5311 6.21526 11.5344 6.6327 10.6033C7.0371 9.70492 7.6176 8.89836 8.35465 8.20328C9.0917 7.5082 9.94616 6.97049 10.8984 6.59016C11.8834 6.19672 12.927 6 14.0032 6C15.0794 6 16.123 6.19672 17.1079 6.59016C18.0602 6.97049 18.9147 7.51475 19.6517 8.20328ZM16.4882 14.7213C16.6643 14.7869 16.9122 14.8918 17.2513 15.0623C17.3428 15.1095 17.439 15.1492 17.536 15.1892C17.6948 15.2547 17.8556 15.3211 18.0014 15.4229C18.1188 15.5803 18.1515 15.7114 18.0732 16.059C16.5339 20.059 8.9677 14.2557 10.2266 11.2065C10.4353 10.7278 10.944 9.8098 11.8311 10.2688C11.9698 10.3385 12.0278 10.4864 12.0856 10.6336C12.1148 10.7079 12.1439 10.7821 12.1833 10.8459C12.2692 11.0267 12.3627 11.2332 12.443 11.4107C12.4909 11.5164 12.5341 11.6118 12.5682 11.6852C12.5789 11.7243 12.6003 11.7674 12.6241 11.8154C12.7162 12.001 12.8438 12.2581 12.5225 12.6229C12.4947 12.6764 12.4325 12.744 12.3646 12.8176C12.2411 12.9516 12.0989 13.1058 12.1116 13.2328C12.2159 13.4229 12.6986 14.1311 12.9595 14.3803C13.5465 14.9508 14.2966 15.5082 15.1054 15.6655C15.2963 15.5926 15.4805 15.3333 15.6579 15.0834C15.7837 14.9063 15.9061 14.7339 16.0251 14.636C16.1032 14.5744 16.3051 14.6517 16.4314 14.7C16.4529 14.7082 16.4721 14.7156 16.4882 14.7213Z" fill="#25D366"/>
</g>
<defs>
<clipPath id="clip0_1801_316">
<rect width="16" height="16" fill="white" transform="translate(6 6)"/>
</clipPath>
</defs>
</symbol>
<symbol id="emirtg" width="28" height="28" viewBox="0 0 28 28" fill="none" xmlns="http://www.w3.org/2000/svg">
<rect width="28" height="28" rx="14" fill="white"/>
<path d="M11.6113 16.1212L11.3466 19.8439C11.7253 19.8439 11.8893 19.6813 12.086 19.4859L13.8613 17.7892L17.5401 20.4833C18.2148 20.8593 18.6901 20.6613 18.8721 19.8626L21.2868 8.54767L21.2875 8.54701C21.5015 7.54965 20.9268 7.15964 20.2695 7.40431L6.07581 12.8384C5.10712 13.2145 5.12179 13.7545 5.91114 13.9991L9.53989 15.1278L17.9688 9.85371C18.3654 9.59103 18.7261 9.73637 18.4294 9.99904L11.6113 16.1212Z" fill="#229ED9"/>
</symbol>
<symbol id="emirchat" width="28" height="28" viewBox="0 0 28 28" fill="none" xmlns="http://www.w3.org/2000/svg">
<rect width="28" height="28" rx="14" fill="white"/>
<path d="M18.3133 17.22L18.5733 19.3267C18.6399 19.88 18.0466 20.2667 17.5733 19.98L15.2666 18.6067C15.1066 18.5134 15.0666 18.3134 15.1533 18.1534C15.4866 17.54 15.6666 16.8467 15.6666 16.1534C15.6666 13.7134 13.5733 11.7267 10.9999 11.7267C10.4733 11.7267 9.95993 11.8067 9.47993 11.9667C9.23326 12.0467 8.99326 11.82 9.05326 11.5667C9.65993 9.14004 11.9933 7.33337 14.7799 7.33337C18.0333 7.33337 20.6666 9.79337 20.6666 12.8267C20.6666 14.6267 19.7399 16.22 18.3133 17.22Z" fill="#F20051"/>
<path d="M14.6663 16.1534C14.6663 16.9467 14.373 17.68 13.8797 18.26C13.2197 19.06 12.173 19.5734 10.9997 19.5734L9.25967 20.6067C8.96634 20.7867 8.59301 20.54 8.63301 20.2L8.79967 18.8867C7.90634 18.2667 7.33301 17.2734 7.33301 16.1534C7.33301 14.98 7.95967 13.9467 8.91967 13.3334C9.51301 12.9467 10.2263 12.7267 10.9997 12.7267C13.0263 12.7267 14.6663 14.26 14.6663 16.1534Z" fill="#F20051"/>
</symbol>
</svg>